<svg width="600" height="400" viewBox="0 0 600 400" xmlns="http://www.w3.org/2000/svg">
  <!-- Gradient Background -->
  <defs>
    <linearGradient id="sky-gradient" x1="0%" y1="0%" x2="0%" y2="100%">
      <stop offset="0%" stop-color="#1A1A1A" stop-opacity="0.9" />
      <stop offset="100%" stop-color="#3E2723" stop-opacity="0.8" />
    </linearGradient>
    <filter id="blur" x="-5%" y="-5%" width="110%" height="110%">
      <feGaussianBlur in="SourceGraphic" stdDeviation="2" />
    </filter>
    <radialGradient id="light-glow" cx="50%" cy="50%" r="50%" fx="50%" fy="50%">
      <stop offset="0%" stop-color="#FFFFFF" stop-opacity="0.6" />
      <stop offset="100%" stop-color="#D4AF37" stop-opacity="0" />
    </radialGradient>
  </defs>
  
  <!-- Sky Background -->
  <rect width="600" height="400" fill="url(#sky-gradient)" />
  
  <!-- City Skyline Silhouette -->
  <path d="M0,300 L50,300 L50,280 L70,280 L70,260 L90,260 L90,280 L110,280 L110,270 L130,270 L130,250 L150,250 L150,230 L170,230 L170,260 L190,260 L190,240 L210,240 L210,220 L230,220 L230,250 L250,250 L250,230 L270,230 L270,210 L290,210 L290,240 L310,240 L310,220 L330,220 L330,200 L350,200 L350,230 L370,230 L370,210 L390,210 L390,190 L410,190 L410,220 L430,220 L430,240 L450,240 L450,220 L470,220 L470,250 L490,250 L490,270 L510,270 L510,250 L530,250 L530,280 L550,280 L550,300 L600,300 L600,400 L0,400 Z" fill="#000000" opacity="0.8" />
  
  <!-- City Lights -->
  <circle cx="70" cy="270" r="2" fill="#FFFFFF" opacity="0.8" />
  <circle cx="110" cy="275" r="2" fill="#FFFFFF" opacity="0.8" />
  <circle cx="150" cy="240" r="2" fill="#FFFFFF" opacity="0.8" />
  <circle cx="190" cy="250" r="2" fill="#FFFFFF" opacity="0.8" />
  <circle cx="230" cy="230" r="2" fill="#FFFFFF" opacity="0.8" />
  <circle cx="270" cy="220" r="2" fill="#FFFFFF" opacity="0.8" />
  <circle cx="310" cy="230" r="2" fill="#FFFFFF" opacity="0.8" />
  <circle cx="350" cy="210" r="2" fill="#FFFFFF" opacity="0.8" />
  <circle cx="390" cy="200" r="2" fill="#FFFFFF" opacity="0.8" />
  <circle cx="430" cy="230" r="2" fill="#FFFFFF" opacity="0.8" />
  <circle cx="470" cy="240" r="2" fill="#FFFFFF" opacity="0.8" />
  <circle cx="510" cy="260" r="2" fill="#FFFFFF" opacity="0.8" />
  <circle cx="550" cy="290" r="2" fill="#FFFFFF" opacity="0.8" />
  
  <!-- More City Lights (smaller) -->
  <circle cx="60" cy="290" r="1" fill="#FFFFFF" opacity="0.6" />
  <circle cx="100" cy="285" r="1" fill="#FFFFFF" opacity="0.6" />
  <circle cx="140" cy="260" r="1" fill="#FFFFFF" opacity="0.6" />
  <circle cx="180" cy="270" r="1" fill="#FFFFFF" opacity="0.6" />
  <circle cx="220" cy="250" r="1" fill="#FFFFFF" opacity="0.6" />
  <circle cx="260" cy="240" r="1" fill="#FFFFFF" opacity="0.6" />
  <circle cx="300" cy="250" r="1" fill="#FFFFFF" opacity="0.6" />
  <circle cx="340" cy="230" r="1" fill="#FFFFFF" opacity="0.6" />
  <circle cx="380" cy="220" r="1" fill="#FFFFFF" opacity="0.6" />
  <circle cx="420" cy="250" r="1" fill="#FFFFFF" opacity="0.6" />
  <circle cx="460" cy="260" r="1" fill="#FFFFFF" opacity="0.6" />
  <circle cx="500" cy="280" r="1" fill="#FFFFFF" opacity="0.6" />
  <circle cx="540" cy="290" r="1" fill="#FFFFFF" opacity="0.6" />
  
  <!-- Helicopter -->
  <ellipse cx="300" cy="150" rx="60" ry="20" fill="#000000" opacity="0.8" />
  <rect x="290" y="130" width="20" height="20" fill="#000000" opacity="0.8" />
  <rect x="240" y="140" width="120" height="10" fill="#000000" opacity="0.8" rx="5" ry="5" />
  
  <!-- Helicopter Rotor -->
  <line x1="200" y1="130" x2="400" y2="130" stroke="#FFFFFF" stroke-width="2" opacity="0.8" />
  <circle cx="300" cy="130" r="5" fill="#000000" opacity="0.8" />
  
  <!-- Helicopter Tail -->
  <path d="M360,150 L400,140 L400,160 L360,150 Z" fill="#000000" opacity="0.8" />
  <line x1="400" y1="140" x2="400" y2="160" stroke="#FFFFFF" stroke-width="1" opacity="0.8" />
  <line x1="390" y1="150" x2="410" y2="150" stroke="#FFFFFF" stroke-width="1" opacity="0.8" />
  
  <!-- Helicopter Light -->
  <circle cx="240" cy="150" r="15" fill="url(#light-glow)" opacity="0.8" />
  <path d="M240,150 L150,250" stroke="#FFFFFF" stroke-width="1" opacity="0.2" />
  
  <!-- Helicopter Windows -->
  <ellipse cx="270" cy="145" rx="10" ry="5" fill="#87CEEB" opacity="0.5" />
  <ellipse cx="300" cy="145" rx="10" ry="5" fill="#87CEEB" opacity="0.5" />
  <ellipse cx="330" cy="145" rx="10" ry="5" fill="#87CEEB" opacity="0.5" />
  
  <!-- Moon -->
  <circle cx="500" cy="80" r="30" fill="#FFFFFF" opacity="0.8" />
  <circle cx="485" cy="70" r="8" fill="#3E2723" opacity="0.2" />
  <circle cx="510" cy="90" r="6" fill="#3E2723" opacity="0.2" />
  <circle cx="495" cy="95" r="7" fill="#3E2723" opacity="0.2" />
  
  <!-- Stars -->
  <circle cx="100" cy="50" r="1" fill="#FFFFFF" opacity="0.8" />
  <circle cx="150" cy="80" r="1" fill="#FFFFFF" opacity="0.8" />
  <circle cx="200" cy="40" r="1" fill="#FFFFFF" opacity="0.8" />
  <circle cx="250" cy="70" r="1" fill="#FFFFFF" opacity="0.8" />
  <circle cx="350" cy="60" r="1" fill="#FFFFFF" opacity="0.8" />
  <circle cx="400" cy="30" r="1" fill="#FFFFFF" opacity="0.8" />
  <circle cx="450" cy="90" r="1" fill="#FFFFFF" opacity="0.8" />
  <circle cx="550" cy="50" r="1" fill="#FFFFFF" opacity="0.8" />
  
  <!-- Experience Title (for placeholder only) -->
  <text x="300" y="350" font-family="serif" font-size="24" fill="#FFFFFF" text-anchor="middle" opacity="0.9">HELICOPTER CITY TOUR</text>
  <text x="300" y="380" font-family="serif" font-size="16" fill="#D4AF37" text-anchor="middle" opacity="0.8">EXCLUSIVE AERIAL EXPERIENCE</text>
</svg>