<svg width="800" height="600" viewBox="0 0 800 600" xmlns="http://www.w3.org/2000/svg">
  <!-- Gradient Background -->
  <defs>
    <linearGradient id="bg-gradient" x1="0%" y1="0%" x2="100%" y2="100%">
      <stop offset="0%" stop-color="#5D4037" stop-opacity="0.8" />
      <stop offset="100%" stop-color="#3E2723" stop-opacity="0.9" />
    </linearGradient>
    <filter id="blur" x="-5%" y="-5%" width="110%" height="110%">
      <feGaussianBlur in="SourceGraphic" stdDeviation="3" />
    </filter>
    <linearGradient id="window-gradient" x1="0%" y1="0%" x2="0%" y2="100%">
      <stop offset="0%" stop-color="#87CEEB" stop-opacity="0.6" />
      <stop offset="100%" stop-color="#4682B4" stop-opacity="0.3" />
    </linearGradient>
  </defs>
  
  <!-- Base Background -->
  <rect width="800" height="600" fill="url(#bg-gradient)" />
  
  <!-- Boardroom Table -->
  <rect x="150" y="250" width="500" height="200" rx="20" ry="20" fill="#D4AF37" opacity="0.2" />
  <rect x="170" y="270" width="460" height="160" rx="10" ry="10" fill="#3E2723" opacity="0.3" />
  
  <!-- Table Reflection -->
  <ellipse cx="400" cy="450" rx="250" ry="20" fill="#FFFFFF" opacity="0.1" />
  
  <!-- Chairs -->
  <!-- Left Side -->
  <rect x="120" y="280" width="20" height="50" rx="5" ry="5" fill="#D4AF37" opacity="0.3" />
  <rect x="120" y="330" width="20" height="10" fill="#D4AF37" opacity="0.3" />
  <rect x="120" y="370" width="20" height="50" rx="5" ry="5" fill="#D4AF37" opacity="0.3" />
  <rect x="120" y="420" width="20" height="10" fill="#D4AF37" opacity="0.3" />
  
  <!-- Right Side -->
  <rect x="660" y="280" width="20" height="50" rx="5" ry="5" fill="#D4AF37" opacity="0.3" />
  <rect x="660" y="330" width="20" height="10" fill="#D4AF37" opacity="0.3" />
  <rect x="660" y="370" width="20" height="50" rx="5" ry="5" fill="#D4AF37" opacity="0.3" />
  <rect x="660" y="420" width="20" height="10" fill="#D4AF37" opacity="0.3" />
  
  <!-- Top Side -->
  <rect x="200" y="220" width="50" height="20" rx="5" ry="5" fill="#D4AF37" opacity="0.3" />
  <rect x="200" y="210" width="50" height="10" fill="#D4AF37" opacity="0.3" />
  <rect x="300" y="220" width="50" height="20" rx="5" ry="5" fill="#D4AF37" opacity="0.3" />
  <rect x="300" y="210" width="50" height="10" fill="#D4AF37" opacity="0.3" />
  <rect x="400" y="220" width="50" height="20" rx="5" ry="5" fill="#D4AF37" opacity="0.3" />
  <rect x="400" y="210" width="50" height="10" fill="#D4AF37" opacity="0.3" />
  <rect x="500" y="220" width="50" height="20" rx="5" ry="5" fill="#D4AF37" opacity="0.3" />
  <rect x="500" y="210" width="50" height="10" fill="#D4AF37" opacity="0.3" />
  
  <!-- Bottom Side -->
  <rect x="200" y="460" width="50" height="20" rx="5" ry="5" fill="#D4AF37" opacity="0.3" />
  <rect x="200" y="480" width="50" height="10" fill="#D4AF37" opacity="0.3" />
  <rect x="300" y="460" width="50" height="20" rx="5" ry="5" fill="#D4AF37" opacity="0.3" />
  <rect x="300" y="480" width="50" height="10" fill="#D4AF37" opacity="0.3" />
  <rect x="400" y="460" width="50" height="20" rx="5" ry="5" fill="#D4AF37" opacity="0.3" />
  <rect x="400" y="480" width="50" height="10" fill="#D4AF37" opacity="0.3" />
  <rect x="500" y="460" width="50" height="20" rx="5" ry="5" fill="#D4AF37" opacity="0.3" />
  <rect x="500" y="480" width="50" height="10" fill="#D4AF37" opacity="0.3" />
  
  <!-- Presentation Screen -->
  <rect x="300" y="100" width="200" height="120" fill="#FFFFFF" opacity="0.7" />
  <rect x="310" y="110" width="180" height="100" fill="#3E2723" opacity="0.8" />
  <path d="M320,120 L480,120 L480,200 L320,200 Z" fill="#D4AF37" opacity="0.1" />
  <text x="400" y="160" font-family="sans-serif" font-size="14" fill="#FFFFFF" text-anchor="middle" opacity="0.7">PRESENTATION</text>
  
  <!-- Windows with City View -->
  <rect x="50" y="100" width="200" height="120" fill="url(#window-gradient)" opacity="0.7" />
  <line x1="150" y1="100" x2="150" y2="220" stroke="#FFFFFF" stroke-width="2" opacity="0.5" />
  <line x1="50" y1="160" x2="250" y2="160" stroke="#FFFFFF" stroke-width="2" opacity="0.5" />
  
  <rect x="550" y="100" width="200" height="120" fill="url(#window-gradient)" opacity="0.7" />
  <line x1="650" y1="100" x2="650" y2="220" stroke="#FFFFFF" stroke-width="2" opacity="0.5" />
  <line x1="550" y1="160" x2="750" y2="160" stroke="#FFFFFF" stroke-width="2" opacity="0.5" />
  
  <!-- City Skyline Silhouette in Windows -->
  <path d="M50,180 L70,180 L70,170 L90,170 L90,160 L110,160 L110,170 L130,170 L130,165 L150,165 L150,175 L170,175 L170,160 L190,160 L190,150 L210,150 L210,160 L230,160 L230,170 L250,170 L250,220 L50,220 Z" fill="#000000" opacity="0.5" />
  
  <path d="M550,180 L570,180 L570,170 L590,170 L590,160 L610,160 L610,170 L630,170 L630,165 L650,165 L650,175 L670,175 L670,160 L690,160 L690,150 L710,150 L710,160 L730,160 L730,170 L750,170 L750,220 L550,220 Z" fill="#000000" opacity="0.5" />
  
  <!-- Lighting -->
  <circle cx="250" cy="350" r="10" fill="#FFFFFF" opacity="0.6" />
  <circle cx="400" cy="350" r="10" fill="#FFFFFF" opacity="0.6" />
  <circle cx="550" cy="350" r="10" fill="#FFFFFF" opacity="0.6" />
  
  <!-- Decorative Elements -->
  <rect x="380" y="300" width="40" height="20" fill="#FFFFFF" opacity="0.2" />
  <rect x="390" y="320" width="20" height="10" fill="#FFFFFF" opacity="0.2" />
  
  <!-- Section Title (for placeholder only) -->
  <text x="400" y="50" font-family="serif" font-size="30" fill="#FFFFFF" text-anchor="middle" opacity="0.9">EXECUTIVE BOARDROOM</text>
  <text x="400" y="550" font-family="serif" font-size="18" fill="#D4AF37" text-anchor="middle" opacity="0.8">SOPHISTICATED MEETINGS</text>
</svg>